<?xml version="1.0" encoding="utf-8"?>
<!-- Generator: Adobe Illustrator 21.0.0, SVG Export Plug-In . SVG Version: 6.00 Build 0)  -->
<svg version="1.1" id="Layer_1" xmlns="http://www.w3.org/2000/svg" xmlns:xlink="http://www.w3.org/1999/xlink" x="0px" y="0px"
	 viewBox="0 0 888 872" style="enable-background:new 0 0 888 872;" xml:space="preserve">
<style type="text/css">
	.st0{opacity:0.5;fill:url(#Shape_3_);}
	.st1{fill:url(#path-3_2_);}
	.st2{filter:url(#Adobe_OpacityMaskFilter);}
	.st3{fill:#FFFFFF;}
	.st4{mask:url(#mask-4);fill:url(#Shape_4_);}
</style>
<g id="Page-1">
	<g id="Group" transform="translate(-101.000000, -71.000000)">
		<linearGradient id="Shape_3_" gradientUnits="userSpaceOnUse" x1="101.9508" y1="433.227" x2="876.8422" y2="433.227">
			<stop  offset="0" style="stop-color:#B9B9B9"/>
			<stop  offset="0.5216" style="stop-color:#CDCDCD"/>
			<stop  offset="1" style="stop-color:#FFFFFF"/>
		</linearGradient>
		<path id="Shape" class="st0" d="M579,71c-48.3-0.2-82.4,29.5-83.9,30.5c-17.9,12.9-33.7,28-47.1,45.3c-8.5,11.1-14.8,23.3-20.3,36
			c-8.9,20.4-16.1,41.4-24.7,61.8c-5.6,13.3-11.7,26.3-20.1,38.2c-11.8,16.8-26.8,30.3-44.6,40.9c-8.5,5.1-17.6,9.2-26.7,13.2
			c-9.8,4.3-20,7.2-30.1,10.4c-10.5,3.3-21.2,5.8-31.8,8.8c-7.8,2.2-15.6,4.5-23.4,6.7c-9.6,2.7-19,6-28.3,9.6
			c-18.5,7.2-36.2,15.9-51.7,28.5c-15.4,12.5-26.6,28-33.9,46.2c-10.4,25.7-12.3,52.2-9.2,79.1c2.4,20.8,6.6,41.3,16.2,59.7
			c50.6,97.5,130.2,96.4,67.3,178.6c-54.3,70.7,461,21.7,640.6-165.5s-199.8-26.1-26.7-211.4S627.3,71.3,579,71z"/>
		
			<g id="Shape_1_" transform="translate(626.417337, 526.983433) scale(-1, -1) rotate(-105.000000) translate(-626.417337, -526.983433) ">
			
				<linearGradient id="path-3_2_" gradientUnits="userSpaceOnUse" x1="395.3848" y1="805.9093" x2="395.0226" y2="806.4664" gradientTransform="matrix(182.1178 679.6728 777.364 -208.2941 -698051.25 -100158.4453)">
				<stop  offset="0" style="stop-color:#B9B9B9"/>
				<stop  offset="0.5216" style="stop-color:#CDCDCD"/>
				<stop  offset="1" style="stop-color:#FFFFFF"/>
			</linearGradient>
			<path id="path-3_1_" class="st1" d="M962.6,280.4c52.3,39.9,9.7,106.7-0.4,124.9c-6.4,11.6-15.5,22.5-25.4,33.1
				c-16,17.1-33.6,33.5-49.9,50.5c-10.6,11-20.5,22.3-27.9,34.3c-10.4,16.9-15.5,34-15.9,51.1c-0.2,8.2,0.9,16.2,2.3,24.2
				c1.4,8.5,4.5,16.6,7.2,24.7c2.9,8.4,6.7,16.6,10,24.8c2.5,6.1,4.7,12.3,7.2,18.4c3,7.5,5.2,15.3,7.1,23.1
				c3.7,15.6,5.2,31.7,1.4,48.5c-3.8,16.7-13.3,32.5-27.9,47.4c-20.7,21.1-47.3,37.3-77.4,50.6c-23.2,10.3-47.3,19.3-72.4,23.8
				c-132.8,23.7-119.6-66-228.1,59.3S170.7,643.4,258.6,424.9c87.8-218.5,247.9,193,237.9-103.3C486.5,25.2,910.2,240.5,962.6,280.4
				z"/>
		</g>
		<defs>
			<filter id="Adobe_OpacityMaskFilter" filterUnits="userSpaceOnUse" x="-194.7" y="456" width="931.1" height="1037.6">
				<feColorMatrix  type="matrix" values="1 0 0 0 0  0 1 0 0 0  0 0 1 0 0  0 0 0 1 0"/>
			</filter>
		</defs>
		<mask maskUnits="userSpaceOnUse" x="-194.7" y="456" width="931.1" height="1037.6" id="mask-4">
			<g class="st2">
				<path id="path-3" class="st3" d="M475.3,138.5c52.1-40.2,105.6,18.2,120.6,32.7c9.6,9.2,17.7,20.8,25.4,33.1
					c12.4,19.9,23.7,41.2,35.9,61.3c7.9,13,16.2,25.6,25.9,35.8c13.6,14.4,28.8,23.8,45.2,28.6c7.9,2.3,15.9,3.3,24,4.1
					c8.6,0.8,17.2,0,25.7-0.6c8.9-0.6,17.7-2.2,26.6-3.3c6.5-0.8,13.1-1.4,19.7-2.2c8-1,16.1-1.1,24.2-0.9
					c16.1,0.5,31.9,3.2,47.2,11.2c15.2,8,28,21.3,38.5,39.3c15,25.5,23.8,55.4,28.9,87.9c3.9,25.1,6.4,50.7,4.2,76.1
					c-11.5,134.4-94.7,98.5-1.7,235.6s-344.5,219.9-532.9,78.5s250.6-189.5-38.2-256.6S423.2,178.7,475.3,138.5z"/>
			</g>
		</mask>
		
			<linearGradient id="Shape_4_" gradientUnits="userSpaceOnUse" x1="395.802" y1="806.4786" x2="396.1642" y2="805.9214" gradientTransform="matrix(-932.5687 -249.881 -257.029 959.2453 576697.75 -673695.625)">
			<stop  offset="0" style="stop-color:#B9B9B9"/>
			<stop  offset="0.5216" style="stop-color:#CDCDCD"/>
			<stop  offset="1" style="stop-color:#FFFFFF"/>
		</linearGradient>
		<path id="Shape_2_" class="st4" d="M352.8,1487.5c-82.8,30.3-135.3-60.1-150.7-83c-9.8-14.6-16.9-31.7-23.2-49.5
			c-10.1-28.6-18.3-58.6-28-87.5c-6.3-18.7-13.3-36.9-22.9-52.9c-13.5-22.5-30.8-39.3-51.2-51c-9.8-5.7-20.2-9.7-30.7-13.6
			c-11.3-4.1-23-6.1-34.6-8.5c-12.1-2.5-24.4-3.7-36.6-5.6c-9-1.4-18-3-27-4.4c-11.1-1.7-21.9-4.4-32.6-7.6
			c-21.4-6.3-41.7-15.3-59.4-30.6c-17.7-15.2-30.5-36-38.7-61.6c-11.8-36.4-13.8-75.9-10-117.3c2.9-31.9,7.9-64,19.2-94.2
			C-114.6,660.6-22.6,643-94.6,533.8c-62.2-93.7,532.7-144.2,738.5,95.5s-397.1,140.9-32.6,326.1S435.6,1457.2,352.8,1487.5z"/>
	</g>
</g>
</svg>
